<mxfile host="app.diagrams.net" modified="2021-12-16T15:08:18.270Z" agent="5.0 (Windows NT 10.0; Win64; x64) AppleWebKit/537.36 (KHTML, like Gecko) Chrome/96.0.4664.55 Safari/537.36 Edg/96.0.1054.43" etag="wL-PIOcXQFfktiWL9r0v" version="15.7.0" type="github">
  <diagram name="Page-1" id="c37626ed-c26b-45fb-9056-f9ebc6bb27b6">
    <mxGraphModel dx="1185" dy="662" grid="1" gridSize="10" guides="1" tooltips="1" connect="1" arrows="1" fold="1" page="1" pageScale="1" pageWidth="1100" pageHeight="850" background="none" math="0" shadow="0">
      <root>
        <mxCell id="0" />
        <mxCell id="1" parent="0" />
        <mxCell id="1c7a67bf8fd3230f-83" value="СК Центральный (66)" style="whiteSpace=wrap;html=1;rounded=0;shadow=0;comic=0;strokeWidth=1;fontFamily=Verdana;fontSize=14;fillColor=#f5f5f5;strokeColor=none;verticalAlign=top;fontStyle=1" parent="1" vertex="1">
          <mxGeometry x="1010" y="246" width="350" height="440" as="geometry" />
        </mxCell>
        <mxCell id="1c7a67bf8fd3230f-82" value="СК Пыховский (68)" style="whiteSpace=wrap;html=1;rounded=0;shadow=0;comic=0;strokeWidth=1;fontFamily=Verdana;fontSize=14;fillColor=#f5f5f5;strokeColor=none;fontStyle=1;verticalAlign=top;labelPosition=center;verticalLabelPosition=bottom;align=center;" parent="1" vertex="1">
          <mxGeometry x="1370" y="839" width="370" height="587" as="geometry" />
        </mxCell>
        <mxCell id="1c7a67bf8fd3230f-81" value="СК Владимирский (67)" style="whiteSpace=wrap;html=1;rounded=0;shadow=0;comic=0;strokeWidth=1;fontFamily=Verdana;fontSize=14;fillColor=#f5f5f5;strokeColor=none;fontStyle=1;verticalAlign=top;labelPosition=center;verticalLabelPosition=bottom;align=center;" parent="1" vertex="1">
          <mxGeometry x="910" y="838.9999999999999" width="432" height="587" as="geometry" />
        </mxCell>
        <mxCell id="1c7a67bf8fd3230f-80" value="РУ Бурляевский (61)" style="whiteSpace=wrap;html=1;rounded=0;shadow=0;comic=0;strokeWidth=1;fontFamily=Verdana;fontSize=14;fillColor=#f5f5f5;strokeColor=none;fontStyle=1;verticalAlign=top;labelPosition=center;verticalLabelPosition=bottom;align=center;" parent="1" vertex="1">
          <mxGeometry x="506" y="839" width="384" height="587" as="geometry" />
        </mxCell>
        <mxCell id="1c7a67bf8fd3230f-15" value="Internet" style="ellipse;shape=cloud;whiteSpace=wrap;html=1;rounded=0;shadow=0;comic=0;strokeWidth=1;fontFamily=Verdana;fontSize=12;" parent="1" vertex="1">
          <mxGeometry x="659" y="425" width="260" height="138" as="geometry" />
        </mxCell>
        <mxCell id="1c7a67bf8fd3230f-54" style="edgeStyle=none;html=1;labelBackgroundColor=none;startFill=0;endArrow=none;endFill=0;strokeWidth=2;fontFamily=Verdana;fontSize=12;exitX=0.485;exitY=0.506;exitDx=0;exitDy=0;exitPerimeter=0;" parent="1" source="1c7a67bf8fd3230f-47" target="58_N4NvC8-cw4pMC1R1P-5" edge="1">
          <mxGeometry relative="1" as="geometry">
            <mxPoint x="1174" y="696" as="targetPoint" />
          </mxGeometry>
        </mxCell>
        <mxCell id="58_N4NvC8-cw4pMC1R1P-2" value="LAN&lt;br&gt;10.66.0.0/24" style="ellipse;shape=cloud;whiteSpace=wrap;html=1;rounded=0;shadow=0;comic=0;strokeWidth=1;fontFamily=Verdana;fontSize=12;" parent="1" vertex="1">
          <mxGeometry x="1050" y="310" width="250" height="160" as="geometry" />
        </mxCell>
        <mxCell id="58_N4NvC8-cw4pMC1R1P-3" style="edgeStyle=none;html=1;labelBackgroundColor=none;startFill=0;endArrow=none;endFill=0;strokeWidth=2;fontFamily=Verdana;fontSize=12;entryX=0.5;entryY=0;entryDx=0;entryDy=0;entryPerimeter=0;" parent="1" source="58_N4NvC8-cw4pMC1R1P-2" target="1c7a67bf8fd3230f-47" edge="1">
          <mxGeometry relative="1" as="geometry">
            <mxPoint x="1260" y="499.9999999999998" as="sourcePoint" />
            <mxPoint x="1260" y="553" as="targetPoint" />
          </mxGeometry>
        </mxCell>
        <mxCell id="58_N4NvC8-cw4pMC1R1P-4" value="10.66.0.1" style="text;html=1;resizable=0;autosize=1;align=center;verticalAlign=middle;points=[];fillColor=none;strokeColor=none;rounded=0;" parent="1" vertex="1">
          <mxGeometry x="1174" y="570" width="70" height="20" as="geometry" />
        </mxCell>
        <mxCell id="58_N4NvC8-cw4pMC1R1P-5" value="LAN FC&lt;br&gt;172.15.0.0/16 (VLAN250)" style="ellipse;shape=cloud;whiteSpace=wrap;html=1;rounded=0;shadow=0;comic=0;strokeWidth=1;fontFamily=Verdana;fontSize=12;" parent="1" vertex="1">
          <mxGeometry x="1415" y="680" width="280" height="144" as="geometry" />
        </mxCell>
        <mxCell id="58_N4NvC8-cw4pMC1R1P-7" value="172.15.66.1&lt;br&gt;(VLAN250)" style="text;html=1;resizable=0;autosize=1;align=center;verticalAlign=middle;points=[];fillColor=none;strokeColor=none;rounded=0;" parent="1" vertex="1">
          <mxGeometry x="1213" y="610" width="80" height="30" as="geometry" />
        </mxCell>
        <mxCell id="58_N4NvC8-cw4pMC1R1P-14" style="edgeStyle=none;html=1;labelBackgroundColor=none;startFill=0;endArrow=none;endFill=0;strokeWidth=2;fontFamily=Verdana;fontSize=12;exitX=0.497;exitY=0.38;exitDx=0;exitDy=0;exitPerimeter=0;" parent="1" source="58_N4NvC8-cw4pMC1R1P-13" target="58_N4NvC8-cw4pMC1R1P-5" edge="1">
          <mxGeometry relative="1" as="geometry">
            <mxPoint x="1182.8299999999995" y="626.818" as="sourcePoint" />
            <mxPoint x="1354.77646050033" y="712.2608469699896" as="targetPoint" />
          </mxGeometry>
        </mxCell>
        <mxCell id="58_N4NvC8-cw4pMC1R1P-15" value="172.15.68.1&lt;br&gt;(VLAN250)" style="text;html=1;resizable=0;autosize=1;align=center;verticalAlign=middle;points=[];fillColor=none;strokeColor=none;rounded=0;" parent="1" vertex="1">
          <mxGeometry x="1555" y="865" width="80" height="30" as="geometry" />
        </mxCell>
        <mxCell id="58_N4NvC8-cw4pMC1R1P-16" value="172.15.67.1&lt;br&gt;(VLAN250)" style="text;html=1;resizable=0;autosize=1;align=center;verticalAlign=middle;points=[];fillColor=none;strokeColor=none;rounded=0;" parent="1" vertex="1">
          <mxGeometry x="1164" y="911.5" width="80" height="30" as="geometry" />
        </mxCell>
        <mxCell id="58_N4NvC8-cw4pMC1R1P-17" value="172.15.61.1&lt;br&gt;(VLAN250)" style="text;html=1;resizable=0;autosize=1;align=center;verticalAlign=middle;points=[];fillColor=none;strokeColor=none;rounded=0;" parent="1" vertex="1">
          <mxGeometry x="737" y="923" width="80" height="30" as="geometry" />
        </mxCell>
        <mxCell id="58_N4NvC8-cw4pMC1R1P-18" style="edgeStyle=none;html=1;labelBackgroundColor=none;startFill=0;endArrow=none;endFill=0;strokeWidth=2;fontFamily=Verdana;fontSize=12;exitX=0.468;exitY=0.491;exitDx=0;exitDy=0;exitPerimeter=0;" parent="1" source="58_N4NvC8-cw4pMC1R1P-12" target="58_N4NvC8-cw4pMC1R1P-5" edge="1">
          <mxGeometry relative="1" as="geometry">
            <mxPoint x="1568.7659999999996" y="930.1399999999999" as="sourcePoint" />
            <mxPoint x="1284.5935757843422" y="799.8594846770777" as="targetPoint" />
          </mxGeometry>
        </mxCell>
        <mxCell id="58_N4NvC8-cw4pMC1R1P-19" style="edgeStyle=none;html=1;labelBackgroundColor=none;startFill=0;endArrow=none;endFill=0;strokeWidth=2;fontFamily=Verdana;fontSize=12;" parent="1" source="58_N4NvC8-cw4pMC1R1P-11" target="58_N4NvC8-cw4pMC1R1P-5" edge="1">
          <mxGeometry relative="1" as="geometry">
            <mxPoint x="1578.7659999999996" y="940.1399999999999" as="sourcePoint" />
            <mxPoint x="1294.5935757843422" y="809.8594846770777" as="targetPoint" />
          </mxGeometry>
        </mxCell>
        <mxCell id="58_N4NvC8-cw4pMC1R1P-20" value="LAN&lt;br&gt;10.68.0.0/24" style="ellipse;shape=cloud;whiteSpace=wrap;html=1;rounded=0;shadow=0;comic=0;strokeWidth=1;fontFamily=Verdana;fontSize=12;" parent="1" vertex="1">
          <mxGeometry x="1430" y="1040" width="250" height="160" as="geometry" />
        </mxCell>
        <mxCell id="58_N4NvC8-cw4pMC1R1P-21" style="edgeStyle=none;html=1;labelBackgroundColor=none;startFill=0;endArrow=none;endFill=0;strokeWidth=2;fontFamily=Verdana;fontSize=12;entryX=0.437;entryY=0.38;entryDx=0;entryDy=0;entryPerimeter=0;" parent="1" source="58_N4NvC8-cw4pMC1R1P-20" target="58_N4NvC8-cw4pMC1R1P-13" edge="1">
          <mxGeometry relative="1" as="geometry">
            <mxPoint x="1568.7659999999996" y="930.1399999999999" as="sourcePoint" />
            <mxPoint x="1284.5935757843422" y="799.8594846770777" as="targetPoint" />
          </mxGeometry>
        </mxCell>
        <mxCell id="58_N4NvC8-cw4pMC1R1P-22" value="LAN&lt;br&gt;10.67.0.0/24" style="ellipse;shape=cloud;whiteSpace=wrap;html=1;rounded=0;shadow=0;comic=0;strokeWidth=1;fontFamily=Verdana;fontSize=12;" parent="1" vertex="1">
          <mxGeometry x="1001" y="1040" width="250" height="160" as="geometry" />
        </mxCell>
        <mxCell id="58_N4NvC8-cw4pMC1R1P-23" value="LAN&lt;br&gt;10.61.0.0/24" style="ellipse;shape=cloud;whiteSpace=wrap;html=1;rounded=0;shadow=0;comic=0;strokeWidth=1;fontFamily=Verdana;fontSize=12;" parent="1" vertex="1">
          <mxGeometry x="573" y="1040" width="250" height="160" as="geometry" />
        </mxCell>
        <mxCell id="58_N4NvC8-cw4pMC1R1P-24" style="edgeStyle=none;html=1;labelBackgroundColor=none;startFill=0;endArrow=none;endFill=0;strokeWidth=2;fontFamily=Verdana;fontSize=12;entryX=0.498;entryY=0.357;entryDx=0;entryDy=0;entryPerimeter=0;" parent="1" source="58_N4NvC8-cw4pMC1R1P-22" target="58_N4NvC8-cw4pMC1R1P-12" edge="1">
          <mxGeometry relative="1" as="geometry">
            <mxPoint x="1564.9999999999995" y="1050" as="sourcePoint" />
            <mxPoint x="1564.0859999999998" y="930.1399999999999" as="targetPoint" />
          </mxGeometry>
        </mxCell>
        <mxCell id="58_N4NvC8-cw4pMC1R1P-25" style="edgeStyle=none;html=1;labelBackgroundColor=none;startFill=0;endArrow=none;endFill=0;strokeWidth=2;fontFamily=Verdana;fontSize=12;entryX=0.495;entryY=0.468;entryDx=0;entryDy=0;entryPerimeter=0;" parent="1" source="58_N4NvC8-cw4pMC1R1P-23" target="58_N4NvC8-cw4pMC1R1P-11" edge="1">
          <mxGeometry relative="1" as="geometry">
            <mxPoint x="1574.9999999999995" y="1060" as="sourcePoint" />
            <mxPoint x="1574.0859999999998" y="940.1399999999999" as="targetPoint" />
          </mxGeometry>
        </mxCell>
        <mxCell id="58_N4NvC8-cw4pMC1R1P-26" value="10.68.0.1" style="text;html=1;resizable=0;autosize=1;align=center;verticalAlign=middle;points=[];fillColor=none;strokeColor=none;rounded=0;" parent="1" vertex="1">
          <mxGeometry x="1560" y="960" width="70" height="20" as="geometry" />
        </mxCell>
        <mxCell id="58_N4NvC8-cw4pMC1R1P-27" value="10.67.0.1" style="text;html=1;resizable=0;autosize=1;align=center;verticalAlign=middle;points=[];fillColor=none;strokeColor=none;rounded=0;" parent="1" vertex="1">
          <mxGeometry x="1130" y="960" width="70" height="20" as="geometry" />
        </mxCell>
        <mxCell id="58_N4NvC8-cw4pMC1R1P-28" value="10.61.0.1" style="text;html=1;resizable=0;autosize=1;align=center;verticalAlign=middle;points=[];fillColor=none;strokeColor=none;rounded=0;" parent="1" vertex="1">
          <mxGeometry x="700" y="960" width="70" height="20" as="geometry" />
        </mxCell>
        <mxCell id="tx_tMeaAyU1wcFvPWiur-1" value="LAN FC&lt;br&gt;172.18.0.0/16" style="ellipse;shape=cloud;whiteSpace=wrap;html=1;rounded=0;shadow=0;comic=0;strokeWidth=1;fontFamily=Verdana;fontSize=12;" parent="1" vertex="1">
          <mxGeometry x="650" y="620" width="260" height="138" as="geometry" />
        </mxCell>
        <mxCell id="tx_tMeaAyU1wcFvPWiur-2" style="edgeStyle=none;html=1;labelBackgroundColor=none;startFill=0;endArrow=none;endFill=0;strokeWidth=2;fontFamily=Verdana;fontSize=12;" parent="1" source="tx_tMeaAyU1wcFvPWiur-1" target="58_N4NvC8-cw4pMC1R1P-11" edge="1">
          <mxGeometry relative="1" as="geometry">
            <mxPoint x="1184.9999999999995" y="479.9999999999998" as="sourcePoint" />
            <mxPoint x="1184" y="599.9999999999998" as="targetPoint" />
          </mxGeometry>
        </mxCell>
        <mxCell id="tx_tMeaAyU1wcFvPWiur-3" value="172.18.61.1" style="text;html=1;resizable=0;autosize=1;align=center;verticalAlign=middle;points=[];fillColor=none;strokeColor=none;rounded=0;" parent="1" vertex="1">
          <mxGeometry x="630" y="875" width="80" height="20" as="geometry" />
        </mxCell>
        <mxCell id="tx_tMeaAyU1wcFvPWiur-4" value="172.18.67.1" style="text;html=1;resizable=0;autosize=1;align=center;verticalAlign=middle;points=[];fillColor=none;strokeColor=none;rounded=0;" parent="1" vertex="1">
          <mxGeometry x="1010" y="895" width="80" height="20" as="geometry" />
        </mxCell>
        <mxCell id="tx_tMeaAyU1wcFvPWiur-5" style="edgeStyle=none;html=1;labelBackgroundColor=none;startFill=0;endArrow=none;endFill=0;strokeWidth=2;fontFamily=Verdana;fontSize=12;entryX=0.407;entryY=0.402;entryDx=0;entryDy=0;entryPerimeter=0;" parent="1" source="tx_tMeaAyU1wcFvPWiur-1" target="58_N4NvC8-cw4pMC1R1P-12" edge="1">
          <mxGeometry relative="1" as="geometry">
            <mxPoint x="931.3223148964494" y="809.4545449727098" as="sourcePoint" />
            <mxPoint x="747" y="914.3125" as="targetPoint" />
          </mxGeometry>
        </mxCell>
        <mxCell id="tx_tMeaAyU1wcFvPWiur-6" value="172.18.68.1" style="text;html=1;resizable=0;autosize=1;align=center;verticalAlign=middle;points=[];fillColor=none;strokeColor=none;rounded=0;" parent="1" vertex="1">
          <mxGeometry x="1440" y="911.5" width="80" height="20" as="geometry" />
        </mxCell>
        <mxCell id="tx_tMeaAyU1wcFvPWiur-7" style="edgeStyle=none;html=1;labelBackgroundColor=none;startFill=0;endArrow=none;endFill=0;strokeWidth=2;fontFamily=Verdana;fontSize=12;entryX=0.633;entryY=0.579;entryDx=0;entryDy=0;entryPerimeter=0;" parent="1" source="tx_tMeaAyU1wcFvPWiur-1" target="58_N4NvC8-cw4pMC1R1P-13" edge="1">
          <mxGeometry relative="1" as="geometry">
            <mxPoint x="1061.2343047960971" y="824.437048915546" as="sourcePoint" />
            <mxPoint x="1128.746" y="931.306" as="targetPoint" />
          </mxGeometry>
        </mxCell>
        <mxCell id="tx_tMeaAyU1wcFvPWiur-8" value="172.18.66.1" style="text;html=1;resizable=0;autosize=1;align=center;verticalAlign=middle;points=[];fillColor=none;strokeColor=none;rounded=0;" parent="1" vertex="1">
          <mxGeometry x="1080" y="640" width="80" height="20" as="geometry" />
        </mxCell>
        <mxCell id="tx_tMeaAyU1wcFvPWiur-9" style="edgeStyle=none;html=1;labelBackgroundColor=none;startFill=0;endArrow=none;endFill=0;strokeWidth=2;fontFamily=Verdana;fontSize=12;exitX=0.305;exitY=0.546;exitDx=0;exitDy=0;exitPerimeter=0;" parent="1" source="1c7a67bf8fd3230f-47" target="tx_tMeaAyU1wcFvPWiur-1" edge="1">
          <mxGeometry relative="1" as="geometry">
            <mxPoint x="931.3223148964494" y="809.4545449727098" as="sourcePoint" />
            <mxPoint x="747" y="914.3125" as="targetPoint" />
          </mxGeometry>
        </mxCell>
        <mxCell id="tx_tMeaAyU1wcFvPWiur-10" value="Офис Воронеж (10)" style="whiteSpace=wrap;html=1;rounded=0;shadow=0;comic=0;strokeWidth=1;fontFamily=Verdana;fontSize=14;fillColor=#f5f5f5;strokeColor=none;verticalAlign=top;fontStyle=1" parent="1" vertex="1">
          <mxGeometry x="240" y="260" width="350" height="440" as="geometry" />
        </mxCell>
        <mxCell id="tx_tMeaAyU1wcFvPWiur-12" value="LAN&lt;br&gt;10.10.0.0/16" style="ellipse;shape=cloud;whiteSpace=wrap;html=1;rounded=0;shadow=0;comic=0;strokeWidth=1;fontFamily=Verdana;fontSize=12;" parent="1" vertex="1">
          <mxGeometry x="293" y="310" width="250" height="160" as="geometry" />
        </mxCell>
        <mxCell id="tx_tMeaAyU1wcFvPWiur-13" value="10.10.0.1" style="text;html=1;resizable=0;autosize=1;align=center;verticalAlign=middle;points=[];fillColor=none;strokeColor=none;rounded=0;" parent="1" vertex="1">
          <mxGeometry x="350" y="563" width="70" height="20" as="geometry" />
        </mxCell>
        <mxCell id="tx_tMeaAyU1wcFvPWiur-14" value="88.83.195.18" style="text;html=1;resizable=0;autosize=1;align=center;verticalAlign=middle;points=[];fillColor=none;strokeColor=none;rounded=0;" parent="1" vertex="1">
          <mxGeometry x="454" y="590" width="90" height="20" as="geometry" />
        </mxCell>
        <mxCell id="tx_tMeaAyU1wcFvPWiur-15" value="172.18.10.1" style="text;html=1;resizable=0;autosize=1;align=center;verticalAlign=middle;points=[];fillColor=none;strokeColor=none;rounded=0;" parent="1" vertex="1">
          <mxGeometry x="445" y="643" width="80" height="20" as="geometry" />
        </mxCell>
        <mxCell id="tx_tMeaAyU1wcFvPWiur-18" style="edgeStyle=none;html=1;labelBackgroundColor=none;startFill=0;endArrow=none;endFill=0;strokeWidth=2;fontFamily=Verdana;fontSize=12;entryX=0.564;entryY=0.491;entryDx=0;entryDy=0;entryPerimeter=0;" parent="1" source="tx_tMeaAyU1wcFvPWiur-12" target="tx_tMeaAyU1wcFvPWiur-17" edge="1">
          <mxGeometry relative="1" as="geometry">
            <mxPoint x="521" y="440" as="sourcePoint" />
            <mxPoint x="520" y="560" as="targetPoint" />
          </mxGeometry>
        </mxCell>
        <mxCell id="tx_tMeaAyU1wcFvPWiur-19" style="edgeStyle=none;html=1;labelBackgroundColor=none;startFill=0;endArrow=none;endFill=0;strokeWidth=2;fontFamily=Verdana;fontSize=12;exitX=0.578;exitY=0.657;exitDx=0;exitDy=0;exitPerimeter=0;" parent="1" source="tx_tMeaAyU1wcFvPWiur-17" target="tx_tMeaAyU1wcFvPWiur-1" edge="1">
          <mxGeometry relative="1" as="geometry">
            <mxPoint x="1184.9999999999995" y="479.9999999999998" as="sourcePoint" />
            <mxPoint x="1184" y="599.9999999999998" as="targetPoint" />
          </mxGeometry>
        </mxCell>
        <mxCell id="tx_tMeaAyU1wcFvPWiur-20" style="edgeStyle=none;html=1;labelBackgroundColor=none;startFill=0;endArrow=none;endFill=0;strokeWidth=2;fontFamily=Verdana;fontSize=12;entryX=0.352;entryY=0.368;entryDx=0;entryDy=0;entryPerimeter=0;" parent="1" source="1c7a67bf8fd3230f-15" target="tx_tMeaAyU1wcFvPWiur-17" edge="1">
          <mxGeometry relative="1" as="geometry">
            <mxPoint x="428.41666435018124" y="479.9995552348796" as="sourcePoint" />
            <mxPoint x="429.99199999999973" y="626.0229999999997" as="targetPoint" />
          </mxGeometry>
        </mxCell>
        <mxCell id="tx_tMeaAyU1wcFvPWiur-17" value="" style="shape=mxgraph.cisco.routers.router;html=1;dashed=0;fillColor=#036897;strokeColor=#ffffff;strokeWidth=2;verticalLabelPosition=bottom;verticalAlign=top;rounded=0;shadow=0;comic=0;fontFamily=Verdana;fontSize=12;" parent="1" vertex="1">
          <mxGeometry x="376" y="590" width="78" height="53" as="geometry" />
        </mxCell>
        <mxCell id="tx_tMeaAyU1wcFvPWiur-21" style="edgeStyle=none;html=1;labelBackgroundColor=none;startFill=0;endArrow=none;endFill=0;strokeWidth=2;fontFamily=Verdana;fontSize=12;entryX=0.516;entryY=0.59;entryDx=0;entryDy=0;entryPerimeter=0;" parent="1" source="1c7a67bf8fd3230f-15" target="1c7a67bf8fd3230f-47" edge="1">
          <mxGeometry relative="1" as="geometry">
            <mxPoint x="593.4834166800642" y="720.9645298473722" as="sourcePoint" />
            <mxPoint x="413.45600000000013" y="619.5039999999999" as="targetPoint" />
          </mxGeometry>
        </mxCell>
        <mxCell id="J0VGMc1RVm48U5fGLF9g-1" value="88.83.209.14" style="text;html=1;resizable=0;autosize=1;align=center;verticalAlign=middle;points=[];fillColor=none;strokeColor=none;rounded=0;" vertex="1" parent="1">
          <mxGeometry x="1060" y="563" width="90" height="20" as="geometry" />
        </mxCell>
        <mxCell id="J0VGMc1RVm48U5fGLF9g-2" value="" style="endArrow=none;dashed=1;html=1;rounded=0;entryX=0.449;entryY=0.547;entryDx=0;entryDy=0;entryPerimeter=0;fontColor=#3333FF;strokeColor=#3333FF;edgeStyle=orthogonalEdgeStyle;elbow=vertical;curved=1;" edge="1" parent="1" source="1c7a67bf8fd3230f-47" target="58_N4NvC8-cw4pMC1R1P-12">
          <mxGeometry width="50" height="50" relative="1" as="geometry">
            <mxPoint x="630" y="640" as="sourcePoint" />
            <mxPoint x="680" y="590" as="targetPoint" />
            <Array as="points">
              <mxPoint x="1550" y="617" />
              <mxPoint x="1550" y="820" />
              <mxPoint x="1122" y="820" />
            </Array>
          </mxGeometry>
        </mxCell>
        <mxCell id="J0VGMc1RVm48U5fGLF9g-3" value="l2tp66LTE_FC&lt;br&gt;l2tp67LTE_FC" style="edgeLabel;html=1;align=center;verticalAlign=middle;resizable=0;points=[];" vertex="1" connectable="0" parent="J0VGMc1RVm48U5fGLF9g-2">
          <mxGeometry x="-0.3892" y="-2" relative="1" as="geometry">
            <mxPoint x="88" y="206" as="offset" />
          </mxGeometry>
        </mxCell>
        <mxCell id="58_N4NvC8-cw4pMC1R1P-12" value="" style="shape=mxgraph.cisco.routers.router;html=1;dashed=0;fillColor=#036897;strokeColor=#ffffff;strokeWidth=2;verticalLabelPosition=bottom;verticalAlign=top;rounded=0;shadow=0;comic=0;fontFamily=Verdana;fontSize=12;" parent="1" vertex="1">
          <mxGeometry x="1087" y="900" width="78" height="53" as="geometry" />
        </mxCell>
        <mxCell id="J0VGMc1RVm48U5fGLF9g-5" value="" style="endArrow=none;dashed=1;html=1;rounded=0;fontColor=#3333FF;strokeColor=#3333FF;edgeStyle=orthogonalEdgeStyle;curved=1;exitX=0.865;exitY=0.56;exitDx=0;exitDy=0;exitPerimeter=0;entryX=0.697;entryY=0.591;entryDx=0;entryDy=0;entryPerimeter=0;" edge="1" parent="1" source="1c7a67bf8fd3230f-47" target="58_N4NvC8-cw4pMC1R1P-11">
          <mxGeometry width="50" height="50" relative="1" as="geometry">
            <mxPoint x="1258" y="623.97" as="sourcePoint" />
            <mxPoint x="749.0059999999999" y="941.4960000000001" as="targetPoint" />
            <Array as="points">
              <mxPoint x="1203" y="624" />
              <mxPoint x="1490" y="624" />
              <mxPoint x="1490" y="800" />
              <mxPoint x="730" y="800" />
              <mxPoint x="730" y="931" />
            </Array>
          </mxGeometry>
        </mxCell>
        <mxCell id="J0VGMc1RVm48U5fGLF9g-6" value="l2tp66LTE_FC&lt;br&gt;l2tp61LTE_FC" style="edgeLabel;html=1;align=center;verticalAlign=middle;resizable=0;points=[];" vertex="1" connectable="0" parent="J0VGMc1RVm48U5fGLF9g-5">
          <mxGeometry x="-0.3892" y="-2" relative="1" as="geometry">
            <mxPoint x="-665" y="58" as="offset" />
          </mxGeometry>
        </mxCell>
        <mxCell id="J0VGMc1RVm48U5fGLF9g-7" value="" style="endArrow=none;dashed=1;html=1;rounded=0;fontColor=#3333FF;strokeColor=#3333FF;exitX=0.423;exitY=0.34;exitDx=0;exitDy=0;exitPerimeter=0;edgeStyle=orthogonalEdgeStyle;curved=1;entryX=0.346;entryY=0.335;entryDx=0;entryDy=0;entryPerimeter=0;" edge="1" parent="1" source="1c7a67bf8fd3230f-47" target="58_N4NvC8-cw4pMC1R1P-13">
          <mxGeometry width="50" height="50" relative="1" as="geometry">
            <mxPoint x="1181.4780000000003" y="620.0029999999999" as="sourcePoint" />
            <mxPoint x="1560.0040000000001" y="922.9010000000001" as="targetPoint" />
            <Array as="points">
              <mxPoint x="1630" y="608" />
              <mxPoint x="1630" y="918" />
            </Array>
          </mxGeometry>
        </mxCell>
        <mxCell id="J0VGMc1RVm48U5fGLF9g-8" value="l2tp66LTE_FC&lt;br&gt;l2tp68LTE_FC" style="edgeLabel;html=1;align=center;verticalAlign=middle;resizable=0;points=[];" vertex="1" connectable="0" parent="J0VGMc1RVm48U5fGLF9g-7">
          <mxGeometry x="-0.3892" y="-2" relative="1" as="geometry">
            <mxPoint x="-129" y="214" as="offset" />
          </mxGeometry>
        </mxCell>
        <mxCell id="58_N4NvC8-cw4pMC1R1P-13" value="" style="shape=mxgraph.cisco.routers.router;html=1;dashed=0;fillColor=#036897;strokeColor=#ffffff;strokeWidth=2;verticalLabelPosition=bottom;verticalAlign=top;rounded=0;shadow=0;comic=0;fontFamily=Verdana;fontSize=12;" parent="1" vertex="1">
          <mxGeometry x="1520" y="900" width="78" height="53" as="geometry" />
        </mxCell>
        <mxCell id="J0VGMc1RVm48U5fGLF9g-12" value="" style="curved=1;endArrow=classic;html=1;rounded=0;fontColor=#3333FF;strokeColor=#3333FF;opacity=50;shape=link;entryX=0.406;entryY=0.387;entryDx=0;entryDy=0;entryPerimeter=0;exitX=0.28;exitY=0.45;exitDx=0;exitDy=0;exitPerimeter=0;dashed=1;" edge="1" parent="1" source="58_N4NvC8-cw4pMC1R1P-11" target="1c7a67bf8fd3230f-47">
          <mxGeometry width="50" height="50" relative="1" as="geometry">
            <mxPoint x="890" y="810" as="sourcePoint" />
            <mxPoint x="940" y="760" as="targetPoint" />
            <Array as="points">
              <mxPoint x="690" y="670" />
            </Array>
          </mxGeometry>
        </mxCell>
        <mxCell id="J0VGMc1RVm48U5fGLF9g-14" value="l2tp66FC&lt;br&gt;l2tp61FC" style="edgeLabel;html=1;align=center;verticalAlign=middle;resizable=0;points=[];fontColor=#33001A;" vertex="1" connectable="0" parent="J0VGMc1RVm48U5fGLF9g-12">
          <mxGeometry x="-0.6803" y="2" relative="1" as="geometry">
            <mxPoint as="offset" />
          </mxGeometry>
        </mxCell>
        <mxCell id="58_N4NvC8-cw4pMC1R1P-11" value="" style="shape=mxgraph.cisco.routers.router;html=1;dashed=0;fillColor=#036897;strokeColor=#ffffff;strokeWidth=2;verticalLabelPosition=bottom;verticalAlign=top;rounded=0;shadow=0;comic=0;fontFamily=Verdana;fontSize=12;" parent="1" vertex="1">
          <mxGeometry x="659" y="900" width="78" height="53" as="geometry" />
        </mxCell>
        <mxCell id="1c7a67bf8fd3230f-47" value="" style="shape=mxgraph.cisco.routers.router;html=1;dashed=0;fillColor=#036897;strokeColor=#ffffff;strokeWidth=2;verticalLabelPosition=bottom;verticalAlign=top;rounded=0;shadow=0;comic=0;fontFamily=Verdana;fontSize=12;" parent="1" vertex="1">
          <mxGeometry x="1135" y="590" width="78" height="53" as="geometry" />
        </mxCell>
      </root>
    </mxGraphModel>
  </diagram>
</mxfile>
